<svg xmlns="http://www.w3.org/2000/svg" viewBox="0 0 24 24" width="24" height="24">
  <path d="M12 0C5.37 0 0 5.37 0 12c0 5.3 3.438 9.8 8.205 11.385.6.11.82-.26.82-.577v-2.165c-3.338.726-4.042-1.415-4.042-1.415-.546-1.387-1.333-1.757-1.333-1.757-1.09-.745.083-.73.083-.73 1.205.085 1.84 1.24 1.84 1.24 1.07 1.835 2.807 1.305 3.492.998.108-.775.42-1.305.763-1.605-2.665-.3-5.466-1.335-5.466-5.93 0-1.31.467-2.38 1.235-3.22-.123-.303-.535-1.523.117-3.176 0 0 1.008-.322 3.3 1.23.957-.266 1.98-.398 3-.403 1.02.005 2.043.137 3 .403 2.29-1.552 3.297-1.23 3.297-1.23.653 1.653.24 2.873.118 3.176.77.84 1.233 1.91 1.233 3.22 0 4.61-2.803 5.625-5.475 5.92.43.37.823 1.102.823 2.222v3.293c0 .32.218.694.825.577C20.565 21.795 24 17.295 24 12c0-6.63-5.37-12-12-12z"/>
</svg>
