<!-- GitHub Mark SVG with rgba(255,255,255,0.3) fill -->
<svg xmlns="http://www.w3.org/2000/svg" viewBox="0 0 32 32" width="24" height="24">
  <path fill="rgba(255,255,255,0.3)" d="M16 2C8.268 2 2 8.268 2 16c0 6.075 3.938 11.225 9.406 13.042.687.127.938-.298.938-.662 0-.327-.012-1.418-.018-2.572-3.825.832-4.63-1.844-4.63-1.844-.625-1.588-1.527-2.012-1.527-2.012-1.25-.855.094-.838.094-.838 1.375.096 2.098 1.414 2.098 1.414 1.23 2.107 3.23 1.5 4.018 1.148.125-.892.48-1.5.875-1.844-3.053-.348-6.266-1.527-6.266-6.797 0-1.5.537-2.73 1.414-3.695-.143-.348-.613-1.75.137-3.646 0 0 1.156-.369 3.789 1.414A13.18 13.18 0 0 1 16 8.844c1.172.006 2.355.158 3.453.463 2.631-1.783 3.785-1.414 3.785-1.414.752 1.896.283 3.299.141 3.646.881.965 1.412 2.195 1.412 3.695 0 5.285-3.219 6.445-6.285 6.787.492.426.934 1.266.934 2.553 0 1.844-.016 3.332-.016 3.785 0 .367.248.797.943.66C26.063 27.221 30 22.073 30 16c0-7.732-6.268-14-14-14z"/>
</svg>
